<svg aria-hidden="true" style="position:absolute;width:0;height:0;overflow:hidden" xmlns="http://www.w3.org/2000/svg">
  <defs>
    <symbol id="icon-home" viewBox="0 0 32 32">
      <path d="M32 18.451 16 6.031 0 18.451v-5.064L16 .967l16 12.42zM28 18v12h-8v-8h-8v8H4V18l12-9z"/>
    </symbol>
    <symbol id="icon-pencil" viewBox="0 0 32 32">
      <path d="M27 0a5 5 0 0 1 4 8l-2 2-7-7 2-2c.836-.628 1.874-1 3-1zM2 23l-2 9 9-2 18.5-18.5-7-7L2 23zm20.362-11.638-14 14-1.724-1.724 14-14 1.724 1.724z"/>
    </symbol>
    <symbol id="icon-eyedropper" viewBox="0 0 32 32">
      <path d="M30.828 1.172a4 4 0 0 0-5.657 0l-5.379 5.379-3.793-3.793-4.243 4.243 3.326 3.326L.328 25.081a1.123 1.123 0 0 0-.322.921h-.008v5a1 1 0 0 0 1 1h5.125c.288 0 .576-.11.795-.329l14.754-14.754 3.326 3.326 4.243-4.243-3.793-3.793 5.379-5.379a4 4 0 0 0 0-5.657zM5.409 30H2v-3.409l14.674-14.674 3.409 3.409L5.409 30z"/>
    </symbol>
  </defs>
</svg>
